<?xml version="1.0" encoding="UTF-8"?>
<svg id="Layer_1" data-name="Layer 1" xmlns="http://www.w3.org/2000/svg" viewBox="0 0 407.73 456.78">
  <defs>
    <style>
      .cls-1 {
        stroke: #000;
        stroke-miterlimit: 10;
        stroke-width: 3.89px;
      }

      .cls-1, .cls-2 {
        fill: #fff;
      }

      .cls-3 {
        fill: none;
        stroke-width: 2.72px;
      }

      .cls-3, .cls-4 {
        stroke: #fff;
        stroke-linejoin: round;
      }

      .cls-2, .cls-5 {
        stroke-width: 0px;
      }

      .cls-5, .cls-4 {
        fill: #231f20;
      }

      .cls-4 {
        stroke-linecap: round;
        stroke-width: 2.59px;
      }
    </style>
  </defs>
  <g>
    <circle class="cls-5" cx="203.87" cy="252.91" r="203.87"/>
    <path class="cls-2" d="M51.19,207.81l8.55,23.86,52.46,146.44c40.67-13.56,81.34-27.11,122.01-40.67-17.79-49.14-35.59-98.29-53.38-147.43-43.21,5.93-86.42,11.86-129.64,17.79Z"/>
    <path class="cls-1" d="M295.55,113.96l62.4,169.95c-41.16,17.86-82.33,35.72-123.49,53.58-17.86-49.17-35.71-98.34-53.57-147.51,38.22-25.34,76.44-50.68,114.65-76.02Z"/>
  </g>
  <g>
    <path class="cls-4" d="M346.23,141.62c-34.74,31.1-69.49,62.2-104.23,93.3,7.57,10.8,15.15,21.6,22.72,32.41,39.12-25.63,78.23-51.25,117.35-76.88.04-4.26-.35-17.9-10.13-30.89-9.33-12.39-21.54-16.67-25.71-17.94Z"/>
    <path class="cls-4" d="M177.54,293.87c24.28,12.8,51.5,12.34,69.66-1.68,10.19-7.87,15.12-18.14,17.52-24.86-7.78-10.63-15.56-21.26-23.34-31.89-23.99,3.51-33.64,12-37.89,19.52-3.81,6.74-3.71,13.46-10.38,23.35-5.11,7.57-11.16,12.53-15.57,15.57Z"/>
  </g>
  <path class="cls-3" d="M42.63,218.63c19.66,53.16,39.33,106.33,58.99,159.49,3.69-.41,7.37-.82,11.06-1.23-20.76-56.21-41.51-112.43-62.27-168.64-2.59,3.46-5.19,6.92-7.78,10.38Z"/>
</svg>