<?xml version="1.0" encoding="UTF-8"?>
<svg id="Layer_1" data-name="Layer 1" xmlns="http://www.w3.org/2000/svg" xmlns:xlink="http://www.w3.org/1999/xlink" viewBox="0 0 394.15 394.15">
  <defs>
    <style>
      .cls-1 {
        clip-path: url(#clippath);
      }

      .cls-2 {
        fill: none;
      }

      .cls-2, .cls-3, .cls-4 {
        stroke-width: 3.79px;
      }

      .cls-2, .cls-3, .cls-4, .cls-5 {
        stroke: #231f20;
        stroke-miterlimit: 10;
      }

      .cls-3, .cls-6, .cls-7 {
        fill: #231f20;
      }

      .cls-4, .cls-5 {
        fill: #fff;
      }

      .cls-5 {
        stroke-width: 5.06px;
      }

      .cls-7 {
        stroke-width: 0px;
      }
    </style>
    <clipPath id="clippath">
      <rect class="cls-3" x="126.53" y="88.98" width="151.77" height="214.55"/>
    </clipPath>
  </defs>
  <circle class="cls-7" cx="197.07" cy="197.07" r="197.07"/>
  <g>
    <g>
      <rect class="cls-5" x="102.69" y="68.06" width="197.49" height="257.46"/>
      <g>
        <rect class="cls-6" x="126.53" y="88.98" width="151.77" height="214.55"/>
        <g class="cls-1">
          <path class="cls-4" d="M113.7,171.94c18.74-20.59,37.47-41.17,56.21-61.76,15.24,16.59,30.48,33.18,45.72,49.77,10.99-8.99,21.98-17.99,32.98-26.98,10.87,10.11,21.74,20.22,32.61,30.33.16,14.82.29,29.69.37,44.62.18,32.23.18,64.21,0,95.93-20.99,6-41.97,11.99-62.96,17.99-36.97-3-73.95-6-110.92-8.99,2-46.97,4-93.93,6-140.9Z"/>
        </g>
        <rect class="cls-2" x="126.53" y="88.98" width="151.77" height="214.55"/>
      </g>
    </g>
    <circle class="cls-7" cx="200.64" cy="210.91" r="19.49"/>
    <rect class="cls-7" x="181.16" y="236.39" width="41.97" height="65.95"/>
  </g>
</svg>