<?xml version="1.0" encoding="UTF-8"?>
<svg id="Layer_1" data-name="Layer 1" xmlns="http://www.w3.org/2000/svg" viewBox="0 0 359.32 359.32">
  <defs>
    <style>
      .cls-1 {
        stroke-width: 3.23px;
      }

      .cls-1, .cls-2, .cls-3, .cls-4, .cls-5, .cls-6 {
        stroke-miterlimit: 10;
      }

      .cls-1, .cls-2, .cls-4, .cls-5 {
        stroke: #231f20;
      }

      .cls-1, .cls-4, .cls-5 {
        fill: #fff;
      }

      .cls-2, .cls-3, .cls-6 {
        fill: none;
      }

      .cls-2, .cls-6 {
        stroke-width: 2.84px;
      }

      .cls-3 {
        stroke-width: 2.74px;
      }

      .cls-3, .cls-6 {
        stroke: #cd2027;
      }

      .cls-4 {
        stroke-width: 3.43px;
      }

      .cls-5 {
        stroke-width: 3.11px;
      }

      .cls-7 {
        fill: #231f20;
        stroke-width: 0px;
      }
    </style>
  </defs>
  <circle class="cls-4" cx="179.66" cy="179.66" r="177.95"/>
  <g>
    <path class="cls-5" d="M133.33,257.26c.26,8.25-8.07,14.72-16.99,14.21-8.17-.47-15.02-6.69-14.72-14.21V77.33c2.32-5.65,8.71-9.47,15.86-9.47s13.54,3.82,15.86,9.47v179.93Z"/>
    <polygon class="cls-1" points="258.33 260.1 133.33 260.1 133.33 82.06 258.33 82.06 258.33 135.55 258.33 260.1"/>
    <path class="cls-2" d="M179.36,82.06s-15.19,29.25,5.85,29.78,52.29-12.73,55.13-2.32c2.84,10.42-50.18,13.64-33.14,30.02,17.04,16.38,51.13,7.8,51.13,7.8"/>
    <path class="cls-2" d="M135.22,137.94c4.89-1.32,18.76-4.55,29.02.39,1.89.91,3.65,1.72,4.68,3.63,3.43,6.37-6.46,16.4,5.14,21.7,13.33,6.09,25.51-5.63,39.41.67,2.18.99,5.56,2.97,8.88,5.8,0,0,4.46,3.81,7.58,8.52,5.01,7.58,9.17,25.85,0,40.72-11.71,18.99-39.43,23.15-55.86,12.79-2.25-1.42-14.49-9.53-15.93-22.07-.82-7.15,2.36-11.32-.18-15.34-3.45-5.46-13.95-5.09-22.73-3.79"/>
    <path class="cls-2" d="M258.33,223.45s-18.94,8.24-32.2,18.66-32.21.52-44.04,10.2c-11.83,9.68-16.61,7.79-16.61,7.79"/>
    <line class="cls-6" x1="207.67" y1="153.56" x2="179.7" y2="178.47"/>
    <line class="cls-3" x1="185.58" y1="151.11" x2="204.45" y2="182.55"/>
    <circle class="cls-7" cx="116.64" cy="82.9" r="9.38"/>
    <circle class="cls-7" cx="116.84" cy="257.87" r="9.38"/>
  </g>
</svg>