<?xml version="1.0" encoding="UTF-8"?>
<svg id="Layer_1" data-name="Layer 1" xmlns="http://www.w3.org/2000/svg" version="1.1" viewBox="0 0 396.4 399.4">
  <defs>
    <style>
      .cls-1 {
        stroke-linecap: round;
        stroke-width: 3.2px;
      }

      .cls-1, .cls-2 {
        stroke-linejoin: round;
      }

      .cls-1, .cls-2, .cls-3 {
        fill: #fff;
      }

      .cls-1, .cls-3 {
        stroke: #231f20;
      }

      .cls-2 {
        stroke: #000;
      }

      .cls-2, .cls-3 {
        stroke-width: 3.8px;
      }

      .cls-3 {
        stroke-miterlimit: 10;
      }

      .cls-4 {
        fill: #231f20;
        stroke-width: 0px;
      }
    </style>
  </defs>
  <g>
    <circle class="cls-3" cx="198.2" cy="199.7" r="196.3"/>
    <path class="cls-3" d="M51.2,156.3l8.2,23c16.8,47.4,33.5,94.9,50.3,142.3,39.2-13.5,78.5-27,117.7-40.5-17.1-47.3-34.3-94.6-51.4-142-41.6,5.7-83.2,11.4-124.8,17.1h0Z"/>
    <path class="cls-2" d="M286.5,65.9l60.1,163.6c-39.6,17.2-79.3,34.4-118.9,51.6-17.2-47.4-34.4-94.7-51.6-142.1,36.8-24.4,73.6-48.8,110.4-73.2h0Z"/>
  </g>
  <g>
    <path class="cls-1" d="M360,109.8c-9-11.9-20.7-16.1-24.8-17.3-33.5,29.9-66.9,59.9-100.4,89.8,7.3,10.4,14.6,20.8,21.9,31.2,37.6-24.7,75.3-49.4,113-74,0-4.1-.4-17.2-9.8-29.8h0Z"/>
    <path class="cls-4" d="M197.4,202.6c-3.7,6.4-3.6,12.9-10,22.5-4.9,7.3-10.8,12.1-15,15,23.4,12.3,49.6,11.9,67.1-1.6,9.8-7.6,14.6-17.5,16.9-23.9-7.2-10.1-14.5-20.2-21.7-30.3h0c-23.6,3-33.1,11.1-37.2,18.4h-.1Z"/>
  </g>
  <path class="cls-4" d="M42.9,166.7c18.9,51.2,37.9,102.4,56.8,153.6l10,1.3c-20-55-40-109.9-60-164.9-2.3,3.3-4.5,6.7-6.8,10h0Z"/>
</svg>