<?xml version="1.0" encoding="UTF-8"?>
<svg id="Layer_1" data-name="Layer 1" xmlns="http://www.w3.org/2000/svg" viewBox="0 0 368.48 368.48">
  <defs>
    <style>
      .cls-1 {
        stroke-width: 4.73px;
      }

      .cls-1, .cls-2, .cls-3 {
        fill: #fff;
      }

      .cls-1, .cls-3 {
        stroke: #231f20;
        stroke-miterlimit: 10;
      }

      .cls-2, .cls-4 {
        stroke-width: 0px;
      }

      .cls-3 {
        stroke-width: 3.21px;
      }

      .cls-4 {
        fill: #231f20;
      }
    </style>
  </defs>
  <circle class="cls-4" cx="184.24" cy="184.24" r="184.24"/>
  <g>
    <path class="cls-2" d="M139.45,109.14c22.51-17.09,39.8-19.32,52.3-17.2,26.83,4.56,32.6,29.35,57.53,28.66,6.35-.17,47.07-21.02,47.07-21.02v92.38c-14.14,8.76-25.92,12.97-35.68,14.47-2.17.33-11.58,1.07-23.59-1.77-22.26-5.25-36.84-19.21-43.58-26.75-3.99-4.52-15.65-16.49-29.64-15.29-20.17,1.73-34.56,29.91-38.39,37.53-.01.02-.02.03-.02.03l14-91.06Z"/>
    <path class="cls-1" d="M100.34,298.85c8.97-67.06,17.94-134.12,26.91-201.18h12.2c-.06.42-20.02,146.61-27.47,201.18h-11.64Z"/>
    <ellipse class="cls-3" cx="135.09" cy="86.85" rx="14.82" ry="15.29"/>
  </g>
</svg>