<?xml version="1.0" encoding="UTF-8"?>
<svg id="Layer_1" data-name="Layer 1" xmlns="http://www.w3.org/2000/svg" xmlns:xlink="http://www.w3.org/1999/xlink" version="1.1" viewBox="0 0 841.9 595.3">
  <defs>
    <style>
      .cls-1 {
        stroke-width: 2.7px;
      }

      .cls-1, .cls-2, .cls-3, .cls-4, .cls-5, .cls-6, .cls-7, .cls-8, .cls-9, .cls-10, .cls-11, .cls-12, .cls-13, .cls-14, .cls-15, .cls-16, .cls-17, .cls-18 {
        stroke-miterlimit: 10;
      }

      .cls-1, .cls-2, .cls-5, .cls-6, .cls-8, .cls-10, .cls-18 {
        stroke: #fff;
      }

      .cls-1, .cls-19, .cls-5, .cls-6, .cls-8, .cls-13 {
        fill: none;
      }

      .cls-2 {
        stroke-width: 4.9px;
      }

      .cls-2, .cls-3, .cls-4, .cls-7, .cls-9, .cls-10, .cls-11, .cls-20, .cls-18 {
        fill: #fff;
      }

      .cls-21 {
        clip-path: url(#clippath);
      }

      .cls-19, .cls-22, .cls-20, .cls-23 {
        stroke-width: 0px;
      }

      .cls-3, .cls-6 {
        stroke-width: 4.8px;
      }

      .cls-3, .cls-9, .cls-13, .cls-14, .cls-15, .cls-16 {
        stroke: #231f20;
      }

      .cls-4, .cls-7, .cls-11, .cls-12, .cls-17 {
        stroke: #000;
      }

      .cls-4, .cls-8, .cls-12 {
        stroke-width: 4.9px;
      }

      .cls-5, .cls-15 {
        stroke-width: 4.8px;
      }

      .cls-7 {
        stroke-width: 2.4px;
      }

      .cls-9, .cls-13 {
        stroke-width: 5.4px;
      }

      .cls-24 {
        clip-path: url(#clippath-1);
      }

      .cls-10 {
        stroke-width: 7.6px;
      }

      .cls-22, .cls-12, .cls-14, .cls-15, .cls-16, .cls-17 {
        fill: #000;
      }

      .cls-11, .cls-14 {
        stroke-width: 4.5px;
      }

      .cls-16 {
        stroke-width: 5.3px;
      }

      .cls-17, .cls-18 {
        stroke-width: 8.1px;
      }

      .cls-23 {
        fill: #231f20;
      }
    </style>
    <clipPath id="clippath">
      <circle class="cls-19" cx="-331" cy="272" r="213.1"/>
    </clipPath>
    <clipPath id="clippath-1">
      <circle class="cls-19" cx="-901.3" cy="270.1" r="200.2"/>
    </clipPath>
  </defs>
  <g>
    <circle class="cls-3" cx="-331" cy="276" r="213.1"/>
    <polygon class="cls-17" points="-388.4 325.8 -328.2 208.2 -268.1 325.8 -388.4 325.8"/>
    <path class="cls-3" d="M-298.7,265.9c-3.4,14.8-17,24.8-31.3,23.8-12.7-.9-23.7-10.3-26.9-23.3,9.5-19.4,19-38.8,28.6-58.2,9.9,19.2,19.7,38.5,29.5,57.7h0Z"/>
    <path class="cls-18" d="M-394.6,299.5"/>
    <path class="cls-23" d="M-326.6,188.7l-9.4-25.4c-.3-.8-.9-1.4-1.7-1.7l-25.4-9.4,25.4-9.4c.8-.3,1.4-.9,1.7-1.7l9.4-25.4,9.4,25.4c.3.8.9,1.4,1.7,1.7l25.4,9.4-25.4,9.4c-.8.3-1.4.9-1.7,1.7l-9.4,25.4Z"/>
    <g class="cls-21">
      <g>
        <rect class="cls-16" x="-390.7" y="328.5" width="124.9" height="160.5"/>
        <line class="cls-6" x1="-353.7" y1="327.1" x2="-353.7" y2="487.6"/>
        <line class="cls-6" x1="-306.1" y1="327.1" x2="-306.1" y2="487.6"/>
        <rect class="cls-20" x="-401.8" y="323.6" width="147" height="6.2"/>
      </g>
    </g>
  </g>
  <g>
    <circle class="cls-9" cx="-363.1" cy="803.7" r="240.6"/>
    <g>
      <rect class="cls-22" x="-423.4" y="639.3" width="26.7" height="273.7"/>
      <rect class="cls-22" x="-396.7" y="732.1" width="43.3" height="220.2"/>
      <line class="cls-13" x1="-353.4" y1="619.7" x2="-353.4" y2="952.4"/>
      <ellipse class="cls-22" cx="-321.3" cy="809.7" rx="27.9" ry="26.4"/>
      <line class="cls-13" x1="-291.2" y1="709.1" x2="-291.2" y2="956"/>
      <line class="cls-1" x1="-396.7" y1="639.5" x2="-396.7" y2="965.7"/>
    </g>
  </g>
  <circle class="cls-14" cx="-901.3" cy="273.8" r="200.2"/>
  <polygon class="cls-10" points="-955.3 320.6 -898.8 210.2 -842.3 320.6 -955.3 320.6"/>
  <path class="cls-22" d="M-871,264.4c-3.2,13.9-15.9,23.3-29.4,22.4-11.9-.8-22.3-9.7-25.2-21.9,8.9-18.2,17.9-36.5,26.8-54.7,9.2,18.1,18.5,36.1,27.8,54.2Z"/>
  <path class="cls-10" d="M-961.2,296"/>
  <path class="cls-20" d="M-897.2,191.9l-8.8-23.8c-.3-.8-.9-1.4-1.7-1.7l-23.8-8.8,23.8-8.8c.8-.3,1.4-.9,1.7-1.7l8.8-23.8,8.8,23.8c.3.8.9,1.4,1.7,1.7l23.8,8.8-23.8,8.8c-.8.3-1.4.9-1.7,1.7l-8.8,23.8Z"/>
  <g class="cls-24">
    <rect class="cls-2" x="-957.5" y="323.2" width="117.4" height="150.8"/>
    <line class="cls-11" x1="-922.7" y1="321.8" x2="-922.7" y2="472.6"/>
    <line class="cls-11" x1="-878" y1="321.8" x2="-878" y2="472.6"/>
    <rect class="cls-22" x="-967.8" y="318.6" width="138.1" height="5.8"/>
  </g>
  <g>
    <circle class="cls-15" cx="-871.4" cy="809.7" r="214.2"/>
    <g>
      <rect class="cls-20" x="-925.1" y="663.5" width="23.7" height="243.6"/>
      <rect class="cls-20" x="-901.3" y="746.1" width="38.6" height="196"/>
      <line class="cls-5" x1="-862.8" y1="646" x2="-862.8" y2="942"/>
      <ellipse class="cls-20" cx="-834.2" cy="815.1" rx="24.8" ry="23.4"/>
      <line class="cls-5" x1="-807.5" y1="725.5" x2="-807.5" y2="945.3"/>
      <line class="cls-7" x1="-901.3" y1="663.6" x2="-901.3" y2="954"/>
    </g>
  </g>
  <g>
    <circle class="cls-12" cx="440.1" cy="286.7" r="219.9"/>
    <circle class="cls-20" cx="273.7" cy="339" r="15.7"/>
    <circle class="cls-4" cx="597.2" cy="247.7" r="32.8"/>
    <path class="cls-8" d="M290.8,324.3l152.6-147.5,29.2,202.8c33.3-33.9,66.6-67.7,99.8-101.6"/>
  </g>
</svg>