<?xml version="1.0" encoding="UTF-8"?>
<svg id="Layer_1" data-name="Layer 1" xmlns="http://www.w3.org/2000/svg" xmlns:xlink="http://www.w3.org/1999/xlink" version="1.1" viewBox="0 0 841.9 595.3">
  <defs>
    <style>
      .cls-1 {
        stroke-width: 2.7px;
      }

      .cls-1, .cls-2, .cls-3, .cls-4, .cls-5, .cls-6, .cls-7, .cls-8, .cls-9, .cls-10, .cls-11, .cls-12, .cls-13, .cls-14, .cls-15, .cls-16 {
        stroke-miterlimit: 10;
      }

      .cls-1, .cls-2, .cls-4, .cls-5, .cls-9, .cls-16 {
        stroke: #fff;
      }

      .cls-1, .cls-17, .cls-4, .cls-5, .cls-8, .cls-11 {
        fill: none;
      }

      .cls-2 {
        stroke-width: 4.9px;
      }

      .cls-2, .cls-3, .cls-6, .cls-7, .cls-9, .cls-10, .cls-18, .cls-16 {
        fill: #fff;
      }

      .cls-19 {
        clip-path: url(#clippath);
      }

      .cls-17, .cls-20, .cls-18, .cls-21 {
        stroke-width: 0px;
      }

      .cls-3, .cls-5 {
        stroke-width: 4.8px;
      }

      .cls-3, .cls-7, .cls-11, .cls-12, .cls-13, .cls-14 {
        stroke: #231f20;
      }

      .cls-4, .cls-8, .cls-13 {
        stroke-width: 4.8px;
      }

      .cls-6 {
        stroke-width: 2.4px;
      }

      .cls-6, .cls-8, .cls-10, .cls-15 {
        stroke: #000;
      }

      .cls-7, .cls-11 {
        stroke-width: 5.4px;
      }

      .cls-22 {
        clip-path: url(#clippath-1);
      }

      .cls-9 {
        stroke-width: 7.6px;
      }

      .cls-20, .cls-12, .cls-13, .cls-14, .cls-15 {
        fill: #000;
      }

      .cls-10, .cls-12 {
        stroke-width: 4.5px;
      }

      .cls-14 {
        stroke-width: 5.3px;
      }

      .cls-15, .cls-16 {
        stroke-width: 8.1px;
      }

      .cls-21 {
        fill: #231f20;
      }
    </style>
    <clipPath id="clippath">
      <circle class="cls-17" cx="-331" cy="272" r="213.1"/>
    </clipPath>
    <clipPath id="clippath-1">
      <circle class="cls-17" cx="-363.1" cy="-245.8" r="200.2"/>
    </clipPath>
  </defs>
  <g>
    <circle class="cls-3" cx="-331" cy="276" r="213.1"/>
    <polygon class="cls-15" points="-388.4 325.8 -328.2 208.2 -268.1 325.8 -388.4 325.8"/>
    <path class="cls-3" d="M-298.7,265.9c-3.4,14.8-17,24.8-31.3,23.8-12.7-.9-23.7-10.3-26.9-23.3,9.5-19.4,19-38.8,28.6-58.2,9.9,19.2,19.7,38.5,29.5,57.7h0Z"/>
    <path class="cls-16" d="M-394.6,299.5"/>
    <path class="cls-21" d="M-326.6,188.7l-9.4-25.4c-.3-.8-.9-1.4-1.7-1.7l-25.4-9.4,25.4-9.4c.8-.3,1.4-.9,1.7-1.7l9.4-25.4,9.4,25.4c.3.8.9,1.4,1.7,1.7l25.4,9.4-25.4,9.4c-.8.3-1.4.9-1.7,1.7l-9.4,25.4Z"/>
    <g class="cls-19">
      <g>
        <rect class="cls-14" x="-390.7" y="328.5" width="124.9" height="160.5"/>
        <line class="cls-5" x1="-353.7" y1="327.1" x2="-353.7" y2="487.6"/>
        <line class="cls-5" x1="-306.1" y1="327.1" x2="-306.1" y2="487.6"/>
        <rect class="cls-18" x="-401.8" y="323.6" width="147" height="6.2"/>
      </g>
    </g>
  </g>
  <g>
    <circle class="cls-7" cx="-363.1" cy="803.7" r="240.6"/>
    <g>
      <rect class="cls-20" x="-423.4" y="639.3" width="26.7" height="273.7"/>
      <rect class="cls-20" x="-396.7" y="732.1" width="43.3" height="220.2"/>
      <line class="cls-11" x1="-353.4" y1="619.7" x2="-353.4" y2="952.4"/>
      <ellipse class="cls-20" cx="-321.3" cy="809.7" rx="27.9" ry="26.4"/>
      <line class="cls-11" x1="-291.2" y1="709.1" x2="-291.2" y2="956"/>
      <line class="cls-1" x1="-396.7" y1="639.5" x2="-396.7" y2="965.7"/>
    </g>
  </g>
  <circle class="cls-12" cx="-363.1" cy="-242" r="200.2"/>
  <polygon class="cls-9" points="-417 -195.2 -360.5 -305.7 -304 -195.2 -417 -195.2"/>
  <path class="cls-20" d="M-332.8-251.5c-3.2,13.9-15.9,23.3-29.4,22.4-11.9-.8-22.3-9.7-25.2-21.9,8.9-18.2,17.9-36.5,26.8-54.7,9.2,18.1,18.5,36.1,27.8,54.2Z"/>
  <path class="cls-9" d="M-422.9-219.9"/>
  <path class="cls-18" d="M-358.9-324l-8.8-23.8c-.3-.8-.9-1.4-1.7-1.7l-23.8-8.8,23.8-8.8c.8-.3,1.4-.9,1.7-1.7l8.8-23.8,8.8,23.8c.3.8.9,1.4,1.7,1.7l23.8,8.8-23.8,8.8c-.8.3-1.4.9-1.7,1.7l-8.8,23.8Z"/>
  <g class="cls-22">
    <rect class="cls-2" x="-419.2" y="-192.6" width="117.4" height="150.8"/>
    <line class="cls-10" x1="-384.4" y1="-194" x2="-384.4" y2="-43.2"/>
    <line class="cls-10" x1="-339.7" y1="-194" x2="-339.7" y2="-43.2"/>
    <rect class="cls-20" x="-429.6" y="-197.2" width="138.1" height="5.8"/>
  </g>
  <g>
    <circle class="cls-13" cx="446.3" cy="279.7" r="214.2"/>
    <g>
      <rect class="cls-18" x="392.6" y="133.4" width="23.7" height="243.6"/>
      <rect class="cls-18" x="416.4" y="216" width="38.6" height="196"/>
      <line class="cls-4" x1="454.9" y1="115.9" x2="454.9" y2="412"/>
      <ellipse class="cls-18" cx="483.5" cy="285" rx="24.8" ry="23.4"/>
      <line class="cls-4" x1="510.2" y1="195.5" x2="510.2" y2="415.3"/>
      <line class="cls-6" x1="416.4" y1="133.5" x2="416.4" y2="423.9"/>
    </g>
  </g>
  <line class="cls-8" x1="416.4" y1="94.5" x2="416.4" y2="412"/>
</svg>