<?xml version="1.0" encoding="UTF-8"?>
<svg id="Layer_1" data-name="Layer 1" xmlns="http://www.w3.org/2000/svg" xmlns:xlink="http://www.w3.org/1999/xlink" version="1.1" viewBox="0 0 841.9 595.3">
  <defs>
    <style>
      .cls-1 {
        stroke-width: 2.7px;
      }

      .cls-1, .cls-2, .cls-3, .cls-4, .cls-5, .cls-6, .cls-7, .cls-8, .cls-9, .cls-10, .cls-11, .cls-12, .cls-13, .cls-14, .cls-15, .cls-16, .cls-17, .cls-18, .cls-19, .cls-20, .cls-21, .cls-22, .cls-23, .cls-24, .cls-25, .cls-26, .cls-27, .cls-28 {
        stroke-miterlimit: 10;
      }

      .cls-1, .cls-2, .cls-7, .cls-8, .cls-10, .cls-15, .cls-26 {
        stroke: #fff;
      }

      .cls-1, .cls-29, .cls-7, .cls-8, .cls-10, .cls-16, .cls-20 {
        fill: none;
      }

      .cls-2 {
        stroke-width: 4.9px;
      }

      .cls-2, .cls-3, .cls-4, .cls-30, .cls-5, .cls-6, .cls-9, .cls-11, .cls-12, .cls-13, .cls-14, .cls-15, .cls-17, .cls-31, .cls-26 {
        fill: #fff;
      }

      .cls-3, .cls-4, .cls-23 {
        stroke-width: 5.3px;
      }

      .cls-3, .cls-11 {
        stroke: #050505;
      }

      .cls-32 {
        clip-path: url(#clippath);
      }

      .cls-29, .cls-33, .cls-31, .cls-34 {
        stroke-width: 0px;
      }

      .cls-4, .cls-5, .cls-12, .cls-14, .cls-20, .cls-21, .cls-22, .cls-23, .cls-24, .cls-27, .cls-28 {
        stroke: #231f20;
      }

      .cls-30 {
        font-size: 130.7px;
      }

      .cls-30, .cls-35 {
        font-family: MyriadPro-Regular, 'Myriad Pro';
      }

      .cls-5, .cls-8 {
        stroke-width: 4.8px;
      }

      .cls-6, .cls-9, .cls-13, .cls-16, .cls-17, .cls-18, .cls-19, .cls-25 {
        stroke: #000;
      }

      .cls-6, .cls-10, .cls-18 {
        stroke-width: 4.9px;
      }

      .cls-7, .cls-22 {
        stroke-width: 4.8px;
      }

      .cls-9 {
        stroke-width: 2.4px;
      }

      .cls-11, .cls-19, .cls-27 {
        stroke-width: 4.6px;
      }

      .cls-12, .cls-20 {
        stroke-width: 5.4px;
      }

      .cls-13, .cls-14, .cls-16 {
        stroke-width: 4.5px;
      }

      .cls-36 {
        clip-path: url(#clippath-1);
      }

      .cls-37 {
        clip-path: url(#clippath-3);
      }

      .cls-38 {
        clip-path: url(#clippath-2);
      }

      .cls-15 {
        stroke-width: 7.6px;
      }

      .cls-33, .cls-18, .cls-19, .cls-21, .cls-22, .cls-23, .cls-24, .cls-25, .cls-27, .cls-28 {
        fill: #000;
      }

      .cls-17, .cls-21 {
        stroke-width: 4.5px;
      }

      .cls-35 {
        font-size: 114.8px;
      }

      .cls-35, .cls-34 {
        fill: #231f20;
      }

      .cls-24 {
        stroke-width: 5.3px;
      }

      .cls-25, .cls-26 {
        stroke-width: 8.1px;
      }

      .cls-28 {
        stroke-width: 4.9px;
      }
    </style>
    <clipPath id="clippath">
      <circle class="cls-29" cx="-331" cy="272" r="213.1"/>
    </clipPath>
    <clipPath id="clippath-1">
      <circle class="cls-29" cx="-901.3" cy="270.1" r="200.2"/>
    </clipPath>
    <clipPath id="clippath-2">
      <circle class="cls-29" cx="1238.2" cy="701.7" r="206.6"/>
    </clipPath>
    <clipPath id="clippath-3">
      <circle class="cls-29" cx="1841.5" cy="705.4" r="235.2"/>
    </clipPath>
  </defs>
  <g>
    <circle class="cls-5" cx="-331" cy="276" r="213.1"/>
    <polygon class="cls-25" points="-388.4 325.8 -328.2 208.2 -268.1 325.8 -388.4 325.8"/>
    <path class="cls-5" d="M-298.7,265.9c-3.4,14.8-17,24.8-31.3,23.8-12.7-.9-23.7-10.3-26.9-23.3,9.5-19.4,19-38.8,28.6-58.2,9.9,19.2,19.7,38.5,29.5,57.7h0Z"/>
    <path class="cls-26" d="M-394.6,299.5"/>
    <path class="cls-34" d="M-326.6,188.7l-9.4-25.4c-.3-.8-.9-1.4-1.7-1.7l-25.4-9.4,25.4-9.4c.8-.3,1.4-.9,1.7-1.7l9.4-25.4,9.4,25.4c.3.8.9,1.4,1.7,1.7l25.4,9.4-25.4,9.4c-.8.3-1.4.9-1.7,1.7l-9.4,25.4Z"/>
    <g class="cls-32">
      <g>
        <rect class="cls-24" x="-390.7" y="328.5" width="124.9" height="160.5"/>
        <line class="cls-8" x1="-353.7" y1="327.1" x2="-353.7" y2="487.6"/>
        <line class="cls-8" x1="-306.1" y1="327.1" x2="-306.1" y2="487.6"/>
        <rect class="cls-31" x="-401.8" y="323.6" width="147" height="6.2"/>
      </g>
    </g>
  </g>
  <g>
    <circle class="cls-12" cx="-363.1" cy="803.7" r="240.6"/>
    <g>
      <rect class="cls-33" x="-423.4" y="639.3" width="26.7" height="273.7"/>
      <rect class="cls-33" x="-396.7" y="732.1" width="43.3" height="220.2"/>
      <line class="cls-20" x1="-353.4" y1="619.7" x2="-353.4" y2="952.4"/>
      <ellipse class="cls-33" cx="-321.3" cy="809.7" rx="27.9" ry="26.4"/>
      <line class="cls-20" x1="-291.2" y1="709.1" x2="-291.2" y2="956"/>
      <line class="cls-1" x1="-396.7" y1="639.5" x2="-396.7" y2="965.7"/>
    </g>
  </g>
  <circle class="cls-21" cx="-901.3" cy="273.8" r="200.2"/>
  <polygon class="cls-15" points="-955.3 320.6 -898.8 210.2 -842.3 320.6 -955.3 320.6"/>
  <path class="cls-33" d="M-871,264.4c-3.2,13.9-15.9,23.3-29.4,22.4-11.9-.8-22.3-9.7-25.2-21.9,8.9-18.2,17.9-36.5,26.8-54.7,9.2,18.1,18.5,36.1,27.8,54.2Z"/>
  <path class="cls-15" d="M-961.2,296"/>
  <path class="cls-31" d="M-897.2,191.9l-8.8-23.8c-.3-.8-.9-1.4-1.7-1.7l-23.8-8.8,23.8-8.8c.8-.3,1.4-.9,1.7-1.7l8.8-23.8,8.8,23.8c.3.8.9,1.4,1.7,1.7l23.8,8.8-23.8,8.8c-.8.3-1.4.9-1.7,1.7l-8.8,23.8Z"/>
  <g class="cls-36">
    <rect class="cls-2" x="-957.5" y="323.2" width="117.4" height="150.8"/>
    <line class="cls-17" x1="-922.7" y1="321.8" x2="-922.7" y2="472.6"/>
    <line class="cls-17" x1="-878" y1="321.8" x2="-878" y2="472.6"/>
    <rect class="cls-33" x="-967.8" y="318.6" width="138.1" height="5.8"/>
  </g>
  <g>
    <circle class="cls-22" cx="-871.4" cy="809.7" r="214.2"/>
    <g>
      <rect class="cls-31" x="-925.1" y="663.5" width="23.7" height="243.6"/>
      <rect class="cls-31" x="-901.3" y="746.1" width="38.6" height="196"/>
      <line class="cls-7" x1="-862.8" y1="646" x2="-862.8" y2="942"/>
      <ellipse class="cls-31" cx="-834.2" cy="815.1" rx="24.8" ry="23.4"/>
      <line class="cls-7" x1="-807.5" y1="725.5" x2="-807.5" y2="945.3"/>
      <line class="cls-9" x1="-901.3" y1="663.6" x2="-901.3" y2="954"/>
    </g>
  </g>
  <g>
    <circle class="cls-18" cx="1238.2" cy="191.9" r="219.9"/>
    <circle class="cls-31" cx="1071.8" cy="244.3" r="15.7"/>
    <circle class="cls-6" cx="1395.3" cy="152.9" r="32.8"/>
    <path class="cls-10" d="M1089,229.5l152.6-147.5,29.2,202.8c33.3-33.9,66.6-67.7,99.8-101.6"/>
  </g>
  <g>
    <circle class="cls-14" cx="1729.5" cy="172.8" r="198.1"/>
    <circle class="cls-13" cx="1579.6" cy="219.9" r="14.2"/>
    <circle class="cls-13" cx="1871" cy="137.7" r="29.6"/>
    <path class="cls-16" d="M1595,206.6l137.5-132.9,26.3,182.7c30-30.5,60-61,90-91.5"/>
  </g>
  <circle class="cls-19" cx="1238.2" cy="710.2" r="206.6"/>
  <g class="cls-38">
    <path class="cls-31" d="M1182.3,979c7.6-77.5,15.1-155,22.7-232.5l70.5,3.1c6,76.7,12,153.4,17.9,230.1-37.1-.3-74.1-.5-111.2-.8Z"/>
    <path class="cls-11" d="M1240.1,570.4c-55.8,63.4-70,133.6-48,164.2,3.7,5.2,15.7,19.3,47.6,19.9,34.3-1.9,46.9-18.7,50.2-23.5,21.7-32.5,7.2-102.6-49.7-160.5Z"/>
    <text class="cls-35" transform="translate(1210.6 859.9)"><tspan x="0" y="0">$</tspan></text>
  </g>
  <path class="cls-27" d="M1240.4,594.1c-4.2,4.7-10.4,12.2-16.5,22.2-7.7,12.7-6.9,15.3-6.3,16.4,1.3,2.5,4.6,3.1,30.1,2.7,13.6-.2,15.9-.4,17.1-2.3,2.7-4.6-4.4-13.8-14.4-26.9-4.1-5.3-7.7-9.5-10-12.1Z"/>
  <circle class="cls-4" cx="1841.5" cy="715.1" r="235.2"/>
  <g class="cls-37">
    <path class="cls-33" d="M1777.8,1021c8.6-88.2,17.2-176.4,25.8-264.6,27.1-6.6,54.2-13.2,81.3-19.8,6.5,95.1,13,190.2,19.5,285.3-42.2-.3-84.4-.6-126.5-.9Z"/>
    <path class="cls-3" d="M1843.7,555.8c-63.5,72.2-79.6,152.1-54.7,186.9,4.2,5.9,17.9,22,54.2,22.6,39.1-2.2,53.4-21.2,57.1-26.8,24.7-37,8.2-116.8-56.6-182.7Z"/>
    <text class="cls-30" transform="translate(1810.1 885.5)"><tspan x="0" y="0">$</tspan></text>
  </g>
  <path class="cls-23" d="M1844,582.9c-4.8,5.4-11.8,13.9-18.8,25.3-8.8,14.4-7.8,17.4-7.2,18.7,1.5,2.8,5.2,3.5,34.3,3.1,15.5-.2,18.2-.5,19.4-2.7,3.1-5.2-5-15.7-16.4-30.6-4.7-6.1-8.7-10.8-11.4-13.8Z"/>
  <circle class="cls-28" cx="413.5" cy="272" r="219.4"/>
  <g>
    <rect class="cls-31" x="362.3" y="169.7" width="22.5" height="264.8" transform="translate(323 -175.7) rotate(45)"/>
    <rect class="cls-31" x="467.6" y="187.5" width="24.7" height="16.7" transform="translate(279.1 -282) rotate(45)"/>
  </g>
  <path class="cls-31" d="M517.6,195.7l-9.7-26.2c-.3-.8-.9-1.4-1.7-1.7l-26.2-9.7,26.2-9.7c.8-.3,1.4-.9,1.7-1.7l9.7-26.2,9.7,26.2c.3.8.9,1.4,1.7,1.7l26.2,9.7-26.2,9.7c-.8.3-1.4.9-1.7,1.7l-9.7,26.2Z"/>
  <path class="cls-31" d="M386.8,205.5l-5.6-15.2c-.3-.8-.9-1.4-1.7-1.7l-15.2-5.6,15.2-5.6c.8-.3,1.4-.9,1.7-1.7l5.6-15.2,5.6,15.2c.3.8.9,1.4,1.7,1.7l15.2,5.6-15.2,5.6c-.8.3-1.4.9-1.7,1.7l-5.6,15.2Z"/>
  <path class="cls-31" d="M527.6,259.9l-5.6-15.2c-.3-.8-.9-1.4-1.7-1.7l-15.2-5.6,15.2-5.6c.8-.3,1.4-.9,1.7-1.7l5.6-15.2,5.6,15.2c.3.8.9,1.4,1.7,1.7l15.2,5.6-15.2,5.6c-.8.3-1.4.9-1.7,1.7l-5.6,15.2Z"/>
  <path class="cls-31" d="M468.8,288.5l-3.4-9.2c-.3-.8-.9-1.4-1.7-1.7l-9.2-3.4,9.2-3.4c.8-.3,1.4-.9,1.7-1.7l3.4-9.2,3.4,9.2c.3.8.9,1.4,1.7,1.7l9.2,3.4-9.2,3.4c-.8.3-1.4.9-1.7,1.7l-3.4,9.2Z"/>
  <path class="cls-31" d="M440.2,170.4l-3.4-9.2c-.3-.8-.9-1.4-1.7-1.7l-9.2-3.4,9.2-3.4c.8-.3,1.4-.9,1.7-1.7l3.4-9.2,3.4,9.2c.3.8.9,1.4,1.7,1.7l9.2,3.4-9.2,3.4c-.8.3-1.4.9-1.7,1.7l-3.4,9.2Z"/>
</svg>