<?xml version="1.0" encoding="UTF-8"?>
<svg id="Layer_1" data-name="Layer 1" xmlns="http://www.w3.org/2000/svg" xmlns:xlink="http://www.w3.org/1999/xlink" version="1.1" viewBox="0 0 841.9 595.3">
  <defs>
    <style>
      .cls-1 {
        stroke-width: 2.7px;
      }

      .cls-1, .cls-2, .cls-3, .cls-4, .cls-5, .cls-6, .cls-7, .cls-8, .cls-9, .cls-10, .cls-11, .cls-12, .cls-13, .cls-14, .cls-15, .cls-16, .cls-17, .cls-18, .cls-19, .cls-20, .cls-21, .cls-22, .cls-23, .cls-24, .cls-25, .cls-26, .cls-27, .cls-28, .cls-29, .cls-30, .cls-31, .cls-32 {
        stroke-miterlimit: 10;
      }

      .cls-1, .cls-2, .cls-5, .cls-8, .cls-9, .cls-11, .cls-16, .cls-29 {
        stroke: #fff;
      }

      .cls-1, .cls-33, .cls-5, .cls-8, .cls-9, .cls-11, .cls-17, .cls-21 {
        fill: none;
      }

      .cls-2 {
        stroke-width: 4.9px;
      }

      .cls-2, .cls-3, .cls-4, .cls-34, .cls-6, .cls-7, .cls-10, .cls-12, .cls-13, .cls-14, .cls-15, .cls-16, .cls-18, .cls-35, .cls-27, .cls-29, .cls-30 {
        fill: #fff;
      }

      .cls-3, .cls-4, .cls-24 {
        stroke-width: 5.3px;
      }

      .cls-3, .cls-12 {
        stroke: #050505;
      }

      .cls-36 {
        clip-path: url(#clippath);
      }

      .cls-33, .cls-37, .cls-35, .cls-38 {
        stroke-width: 0px;
      }

      .cls-4, .cls-6, .cls-13, .cls-15, .cls-21, .cls-22, .cls-23, .cls-24, .cls-25, .cls-26, .cls-30, .cls-31, .cls-32 {
        stroke: #231f20;
      }

      .cls-5, .cls-26 {
        stroke-width: 5.7px;
      }

      .cls-34 {
        font-size: 130.7px;
      }

      .cls-34, .cls-39 {
        font-family: MyriadPro-Regular, 'Myriad Pro';
      }

      .cls-6, .cls-9 {
        stroke-width: 4.8px;
      }

      .cls-7, .cls-10, .cls-14, .cls-17, .cls-18, .cls-19, .cls-20, .cls-27, .cls-28 {
        stroke: #000;
      }

      .cls-7, .cls-11, .cls-19 {
        stroke-width: 4.9px;
      }

      .cls-8, .cls-23 {
        stroke-width: 4.8px;
      }

      .cls-10 {
        stroke-width: 2.4px;
      }

      .cls-12, .cls-20, .cls-31 {
        stroke-width: 4.6px;
      }

      .cls-13, .cls-21 {
        stroke-width: 5.4px;
      }

      .cls-14, .cls-15, .cls-17 {
        stroke-width: 4.5px;
      }

      .cls-40 {
        clip-path: url(#clippath-1);
      }

      .cls-41 {
        clip-path: url(#clippath-3);
      }

      .cls-42 {
        clip-path: url(#clippath-2);
      }

      .cls-16 {
        stroke-width: 7.6px;
      }

      .cls-37, .cls-19, .cls-20, .cls-22, .cls-23, .cls-24, .cls-25, .cls-26, .cls-28, .cls-31, .cls-32 {
        fill: #000;
      }

      .cls-18, .cls-22 {
        stroke-width: 4.5px;
      }

      .cls-39 {
        font-size: 114.8px;
      }

      .cls-39, .cls-38 {
        fill: #231f20;
      }

      .cls-25 {
        stroke-width: 5.3px;
      }

      .cls-27, .cls-30 {
        stroke-width: 5.9px;
      }

      .cls-28, .cls-29 {
        stroke-width: 8.1px;
      }

      .cls-32 {
        stroke-width: 4.9px;
      }
    </style>
    <clipPath id="clippath">
      <circle class="cls-33" cx="-1237.3" cy="251.5" r="213.1"/>
    </clipPath>
    <clipPath id="clippath-1">
      <circle class="cls-33" cx="-1807.7" cy="249.6" r="200.2"/>
    </clipPath>
    <clipPath id="clippath-2">
      <circle class="cls-33" cx="3099" cy="744.2" r="206.6"/>
    </clipPath>
    <clipPath id="clippath-3">
      <circle class="cls-33" cx="3702.3" cy="747.9" r="235.2"/>
    </clipPath>
  </defs>
  <g>
    <circle class="cls-6" cx="-1237.3" cy="255.6" r="213.1"/>
    <polygon class="cls-28" points="-1294.7 305.3 -1234.6 187.8 -1174.4 305.3 -1294.7 305.3"/>
    <path class="cls-6" d="M-1205,245.5c-3.4,14.8-17,24.8-31.3,23.8-12.7-.9-23.7-10.3-26.9-23.3,9.5-19.4,19-38.8,28.6-58.2,9.9,19.2,19.7,38.5,29.5,57.7h0Z"/>
    <path class="cls-29" d="M-1301,279.1"/>
    <path class="cls-38" d="M-1232.9,168.3l-9.4-25.4c-.3-.8-.9-1.4-1.7-1.7l-25.4-9.4,25.4-9.4c.8-.3,1.4-.9,1.7-1.7l9.4-25.4,9.4,25.4c.3.8.9,1.4,1.7,1.7l25.4,9.4-25.4,9.4c-.8.3-1.4.9-1.7,1.7l-9.4,25.4Z"/>
    <g class="cls-36">
      <g>
        <rect class="cls-25" x="-1297" y="308.1" width="124.9" height="160.5"/>
        <line class="cls-9" x1="-1260" y1="306.7" x2="-1260" y2="467.2"/>
        <line class="cls-9" x1="-1212.4" y1="306.7" x2="-1212.5" y2="467.2"/>
        <rect class="cls-35" x="-1308.1" y="303.2" width="147" height="6.2"/>
      </g>
    </g>
  </g>
  <g>
    <circle class="cls-13" cx="-1269.4" cy="783.2" r="240.6"/>
    <g>
      <rect class="cls-37" x="-1329.7" y="618.9" width="26.7" height="273.7"/>
      <rect class="cls-37" x="-1303" y="711.7" width="43.3" height="220.2"/>
      <line class="cls-21" x1="-1259.7" y1="599.3" x2="-1259.7" y2="931.9"/>
      <ellipse class="cls-37" cx="-1227.6" cy="789.3" rx="27.9" ry="26.4"/>
      <line class="cls-21" x1="-1197.6" y1="688.7" x2="-1197.6" y2="935.6"/>
      <line class="cls-1" x1="-1303" y1="619.1" x2="-1303" y2="945.3"/>
    </g>
  </g>
  <circle class="cls-22" cx="-1807.7" cy="253.4" r="200.2"/>
  <polygon class="cls-16" points="-1861.6 300.2 -1805.1 189.7 -1748.6 300.2 -1861.6 300.2"/>
  <path class="cls-37" d="M-1777.4,244c-3.2,13.9-15.9,23.3-29.4,22.4-11.9-.8-22.3-9.7-25.2-21.9,8.9-18.2,17.9-36.5,26.8-54.7,9.2,18.1,18.5,36.1,27.8,54.2Z"/>
  <path class="cls-16" d="M-1867.5,275.5"/>
  <path class="cls-35" d="M-1803.5,171.5l-8.8-23.8c-.3-.8-.9-1.4-1.7-1.7l-23.8-8.8,23.8-8.8c.8-.3,1.4-.9,1.7-1.7l8.8-23.8,8.8,23.8c.3.8.9,1.4,1.7,1.7l23.8,8.8-23.8,8.8c-.8.3-1.4.9-1.7,1.7l-8.8,23.8Z"/>
  <g class="cls-40">
    <rect class="cls-2" x="-1863.8" y="302.8" width="117.4" height="150.8"/>
    <line class="cls-18" x1="-1829" y1="301.4" x2="-1829" y2="452.2"/>
    <line class="cls-18" x1="-1784.3" y1="301.4" x2="-1784.3" y2="452.2"/>
    <rect class="cls-37" x="-1874.2" y="298.2" width="138.1" height="5.8"/>
  </g>
  <g>
    <circle class="cls-23" cx="-1777.7" cy="789.3" r="214.2"/>
    <g>
      <rect class="cls-35" x="-1831.4" y="643" width="23.7" height="243.6"/>
      <rect class="cls-35" x="-1807.7" y="725.6" width="38.6" height="196"/>
      <line class="cls-8" x1="-1769.1" y1="625.6" x2="-1769.1" y2="921.6"/>
      <ellipse class="cls-35" cx="-1740.5" cy="794.7" rx="24.8" ry="23.4"/>
      <line class="cls-8" x1="-1713.8" y1="705.1" x2="-1713.8" y2="924.9"/>
      <line class="cls-10" x1="-1807.7" y1="643.1" x2="-1807.7" y2="933.5"/>
    </g>
  </g>
  <g>
    <circle class="cls-19" cx="3099" cy="234.4" r="219.9"/>
    <circle class="cls-35" cx="2932.6" cy="286.8" r="15.7"/>
    <circle class="cls-7" cx="3256.1" cy="195.4" r="32.8"/>
    <path class="cls-11" d="M2949.8,272l152.6-147.5,29.2,202.8c33.3-33.9,66.6-67.7,99.8-101.6"/>
  </g>
  <g>
    <circle class="cls-15" cx="3590.3" cy="215.3" r="198.1"/>
    <circle class="cls-14" cx="3440.4" cy="262.5" r="14.2"/>
    <circle class="cls-14" cx="3731.9" cy="180.2" r="29.6"/>
    <path class="cls-17" d="M3455.8,249.1l137.5-132.9,26.3,182.7c30-30.5,60-61,90-91.5"/>
  </g>
  <circle class="cls-20" cx="3099" cy="752.7" r="206.6"/>
  <g class="cls-42">
    <path class="cls-35" d="M3043.1,1021.5c7.6-77.5,15.1-155,22.7-232.5l70.5,3.1c6,76.7,12,153.4,17.9,230.1-37.1-.3-74.1-.5-111.2-.8Z"/>
    <path class="cls-12" d="M3100.9,612.9c-55.8,63.4-70,133.6-48,164.2,3.7,5.2,15.7,19.3,47.6,19.9,34.3-1.9,46.9-18.7,50.2-23.5,21.7-32.5,7.2-102.6-49.7-160.5Z"/>
    <text class="cls-39" transform="translate(3071.5 902.4)"><tspan x="0" y="0">$</tspan></text>
  </g>
  <path class="cls-31" d="M3101.2,636.6c-4.2,4.7-10.4,12.2-16.5,22.2-7.7,12.7-6.9,15.3-6.3,16.4,1.3,2.5,4.6,3.1,30.1,2.7,13.6-.2,15.9-.4,17.1-2.3,2.7-4.6-4.4-13.8-14.4-26.9-4.1-5.3-7.7-9.5-10-12.1Z"/>
  <circle class="cls-4" cx="3702.3" cy="757.6" r="235.2"/>
  <g class="cls-41">
    <path class="cls-37" d="M3638.6,1063.5c8.6-88.2,17.2-176.4,25.8-264.6,27.1-6.6,54.2-13.2,81.3-19.8,6.5,95.1,13,190.2,19.5,285.3-42.2-.3-84.4-.6-126.5-.9Z"/>
    <path class="cls-3" d="M3704.5,598.4c-63.5,72.2-79.6,152.1-54.7,186.9,4.2,5.9,17.9,22,54.2,22.6,39.1-2.2,53.4-21.2,57.1-26.8,24.7-37,8.2-116.8-56.6-182.7Z"/>
    <text class="cls-34" transform="translate(3670.9 928)"><tspan x="0" y="0">$</tspan></text>
  </g>
  <path class="cls-24" d="M3704.8,625.4c-4.8,5.4-11.8,13.9-18.8,25.3-8.8,14.4-7.8,17.4-7.2,18.7,1.5,2.8,5.2,3.5,34.3,3.1,15.5-.2,18.2-.5,19.4-2.7,3.1-5.2-5-15.7-16.4-30.6-4.7-6.1-8.7-10.8-11.4-13.8Z"/>
  <circle class="cls-32" cx="-1395.5" cy="-346.4" r="219.4"/>
  <g>
    <rect class="cls-35" x="-1446.8" y="-448.7" width="22.5" height="264.8" transform="translate(-644.1 922.4) rotate(45)"/>
    <rect class="cls-35" x="-1341.5" y="-430.8" width="24.7" height="16.7" transform="translate(-688 816.1) rotate(45)"/>
  </g>
  <path class="cls-35" d="M-1291.5-422.7l-9.7-26.2c-.3-.8-.9-1.4-1.7-1.7l-26.2-9.7,26.2-9.7c.8-.3,1.4-.9,1.7-1.7l9.7-26.2,9.7,26.2c.3.8.9,1.4,1.7,1.7l26.2,9.7-26.2,9.7c-.8.3-1.4.9-1.7,1.7l-9.7,26.2Z"/>
  <path class="cls-35" d="M-1422.3-412.9l-5.6-15.2c-.3-.8-.9-1.4-1.7-1.7l-15.2-5.6,15.2-5.6c.8-.3,1.4-.9,1.7-1.7l5.6-15.2,5.6,15.2c.3.8.9,1.4,1.7,1.7l15.2,5.6-15.2,5.6c-.8.3-1.4.9-1.7,1.7l-5.6,15.2Z"/>
  <path class="cls-35" d="M-1281.5-358.4l-5.6-15.2c-.3-.8-.9-1.4-1.7-1.7l-15.2-5.6,15.2-5.6c.8-.3,1.4-.9,1.7-1.7l5.6-15.2,5.6,15.2c.3.8.9,1.4,1.7,1.7l15.2,5.6-15.2,5.6c-.8.3-1.4.9-1.7,1.7l-5.6,15.2Z"/>
  <path class="cls-35" d="M-1340.3-329.8l-3.4-9.2c-.3-.8-.9-1.4-1.7-1.7l-9.2-3.4,9.2-3.4c.8-.3,1.4-.9,1.7-1.7l3.4-9.2,3.4,9.2c.3.8.9,1.4,1.7,1.7l9.2,3.4-9.2,3.4c-.8.3-1.4.9-1.7,1.7l-3.4,9.2Z"/>
  <path class="cls-35" d="M-1368.8-447.9l-3.4-9.2c-.3-.8-.9-1.4-1.7-1.7l-9.2-3.4,9.2-3.4c.8-.3,1.4-.9,1.7-1.7l3.4-9.2,3.4,9.2c.3.8.9,1.4,1.7,1.7l9.2,3.4-9.2,3.4c-.8.3-1.4.9-1.7,1.7l-3.4,9.2Z"/>
  <g>
    <circle class="cls-26" cx="-772.2" cy="-435.4" r="252"/>
    <g>
      <g>
        <rect class="cls-5" x="-883.7" y="-521.1" width="174.6" height="178" transform="translate(-556.3 441.6) rotate(46.2)"/>
        <rect class="cls-35" x="-798.8" y="-582.4" width="5.6" height="44.2" transform="translate(166.2 -707.5) rotate(-43.8)"/>
        <path class="cls-35" d="M-911.7-430.1c80-.2,160-.4,239.9-.7-42.8,41.1-85.6,82.2-128.4,123.3-39.8-40.5-79.5-81-119.3-121.6l7.7-1.1Z"/>
      </g>
      <path class="cls-35" d="M-654.8-397.7s-69.2,84.1,0,94c0,0,70.5-5.2,0-94Z"/>
    </g>
  </g>
  <g>
    <circle class="cls-30" cx="425.8" cy="299.5" r="260.2"/>
    <g>
      <g>
        <rect class="cls-27" x="310.7" y="211.1" width="180.2" height="183.8" transform="translate(341.7 -196) rotate(46.2)"/>
        <path class="cls-37" d="M272.1,301.6c85.8.9,171.6,1.8,257.4,2.7-44.2,41-88.5,82-132.7,123-41.6-41.9-83.1-83.8-124.7-125.7Z"/>
      </g>
      <path class="cls-37" d="M547,338.4s-71.5,86.8,0,97.1c0,0,72.8-5.3,0-97.1Z"/>
    </g>
    <rect class="cls-37" x="370.2" y="161" width="49" height="5.6" transform="translate(239.4 -234.3) rotate(46.2)"/>
  </g>
</svg>