<?xml version="1.0" encoding="UTF-8"?>
<svg id="Layer_1" data-name="Layer 1" xmlns="http://www.w3.org/2000/svg" xmlns:xlink="http://www.w3.org/1999/xlink" viewBox="0 0 334.21 361.28">
  <defs>
    <style>
      .cls-1 {
        stroke: #231f20;
        stroke-miterlimit: 10;
        stroke-width: 5.83px;
      }

      .cls-1, .cls-2 {
        fill: #fff;
      }

      .cls-3 {
        clip-path: url(#clippath);
      }

      .cls-4, .cls-5 {
        fill: #231f20;
      }

      .cls-2, .cls-5 {
        stroke-width: 0px;
      }
    </style>
    <clipPath id="clippath">
      <circle class="cls-5" cx="167.11" cy="167.11" r="167.11"/>
    </clipPath>
  </defs>
  <g>
    <g>
      <circle class="cls-4" cx="167.11" cy="167.11" r="167.11"/>
      <g class="cls-3">
        <polygon class="cls-2" points="168.31 220.15 248.36 361.28 86.11 360.04 168.31 220.15"/>
      </g>
    </g>
    <circle class="cls-1" cx="167.6" cy="175.94" r="82.53"/>
    <polygon class="cls-2" points="63.41 203.71 102.1 145.25 133.38 207.99 63.41 203.71"/>
  </g>
  <circle class="cls-5" cx="113.22" cy="162.35" r="8.74"/>
  <rect class="cls-2" x="125.6" y="45.51" width="6.32" height="26.32" transform="translate(-11.37 39.05) rotate(-16.53)"/>
  <rect class="cls-2" x="164.95" y="39.03" width="6.32" height="26.32"/>
  <rect class="cls-2" x="202.26" y="47.08" width="6.32" height="26.32" transform="translate(43.66 -79.98) rotate(24.58)"/>
  <rect class="cls-2" x="97.07" y="64.23" width="6.32" height="26.32" transform="translate(-26.16 85.22) rotate(-41.22)"/>
  <rect class="cls-2" x="230.56" y="63.05" width="6.32" height="26.32" transform="translate(137.04 -149.81) rotate(48.78)"/>
</svg>