<?xml version="1.0" encoding="UTF-8"?>
<svg id="Layer_1" data-name="Layer 1" xmlns="http://www.w3.org/2000/svg" xmlns:xlink="http://www.w3.org/1999/xlink" viewBox="0 0 393.06 393.06">
  <defs>
    <style>
      .cls-1 {
        stroke-width: 3.75px;
      }

      .cls-1, .cls-2, .cls-3 {
        stroke: #231f20;
        stroke-miterlimit: 10;
      }

      .cls-1, .cls-4, .cls-3 {
        fill: #fff;
      }

      .cls-5 {
        clip-path: url(#clippath);
      }

      .cls-2 {
        fill: none;
      }

      .cls-2, .cls-3 {
        stroke-width: 3.59px;
      }

      .cls-6 {
        fill: #231f20;
        stroke-width: 0px;
      }
    </style>
    <clipPath id="clippath">
      <rect class="cls-3" x="126.85" y="89.76" width="149.9" height="211.92"/>
    </clipPath>
  </defs>
  <circle class="cls-1" cx="196.53" cy="196.53" r="194.65"/>
  <g>
    <g>
      <rect class="cls-3" x="103.31" y="69.1" width="195.07" height="254.3"/>
      <g>
        <rect class="cls-4" x="126.85" y="89.76" width="149.9" height="211.92"/>
        <g class="cls-5">
          <path class="cls-3" d="M114.18,171.7c18.51-20.33,37.01-40.67,55.52-61,15.05,16.39,30.1,32.77,45.16,49.16,10.86-8.88,21.71-17.77,32.57-26.65,10.74,9.99,21.47,19.97,32.21,29.96.16,14.64.28,29.33.37,44.07.18,31.83.18,63.42,0,94.76-20.73,5.92-41.46,11.84-62.18,17.77-36.52-2.96-73.04-5.92-109.56-8.88,1.97-46.39,3.95-92.78,5.92-139.17Z"/>
        </g>
        <rect class="cls-2" x="126.85" y="89.76" width="149.9" height="211.92"/>
      </g>
    </g>
    <circle class="cls-6" cx="200.05" cy="210.2" r="19.25"/>
    <rect class="cls-6" x="180.81" y="235.37" width="41.46" height="65.14"/>
  </g>
</svg>