<?xml version="1.0" encoding="UTF-8"?>
<svg id="Layer_1" data-name="Layer 1" xmlns="http://www.w3.org/2000/svg" xmlns:xlink="http://www.w3.org/1999/xlink" viewBox="0 0 800 800">
  <defs>
    <style>
      .cls-1 {
        clip-path: url(#clippath);
      }

      .cls-2 {
        fill: none;
      }

      .cls-2, .cls-3, .cls-4 {
        stroke-width: 0px;
      }

      .cls-3, .cls-5 {
        fill: #000;
      }

      .cls-6 {
        fill: #231f20;
        font-family: MyriadPro-Regular, 'Myriad Pro';
        font-size: 215.62px;
      }

      .cls-5 {
        stroke: #231f20;
      }

      .cls-5, .cls-7 {
        stroke-miterlimit: 10;
        stroke-width: 8.73px;
      }

      .cls-7 {
        stroke: #050505;
      }

      .cls-7, .cls-4 {
        fill: #fff;
      }
    </style>
    <clipPath id="clippath">
      <circle class="cls-2" cx="400" cy="383.37" r="388.01"/>
    </clipPath>
  </defs>
  <circle class="cls-3" cx="400" cy="399.35" r="388.01"/>
  <g class="cls-1">
    <path class="cls-4" d="M294.98,904.16c14.19-145.53,28.39-291.06,42.58-436.6l132.47,5.9c11.23,144.05,22.47,288.1,33.71,432.15-69.59-.48-139.17-.96-208.76-1.45Z"/>
    <path class="cls-7" d="M403.65,136.67c-104.74,119.16-131.4,250.94-90.17,308.39,6.96,9.7,29.49,36.27,89.34,37.28,64.49-3.61,88.1-35.05,94.2-44.18,40.76-60.96,13.5-192.65-93.37-301.49Z"/>
    <text class="cls-6" transform="translate(348.27 680.47)"><tspan x="0" y="0">$</tspan></text>
  </g>
  <path class="cls-5" d="M404.21,181.25c-7.98,8.92-19.46,22.89-30.99,41.74-14.55,23.79-12.93,28.78-11.85,30.81,2.49,4.66,8.58,5.77,56.51,5.1,25.54-.35,29.95-.75,32.08-4.38,5.06-8.59-8.2-25.94-26.98-50.5-7.68-10.05-14.41-17.87-18.78-22.79Z"/>
</svg>