<?xml version="1.0" encoding="UTF-8"?>
<svg id="Layer_1" data-name="Layer 1" xmlns="http://www.w3.org/2000/svg" viewBox="0 0 800 800">
  <defs>
    <style>
      .cls-1 {
        fill: #000;
        stroke: #231f20;
        stroke-miterlimit: 10;
        stroke-width: 1.05px;
      }

      .cls-2 {
        fill: #fff;
        stroke-width: 0px;
      }
    </style>
  </defs>
  <circle class="cls-1" cx="400" cy="400" r="392.21"/>
  <g>
    <rect class="cls-2" x="308.39" y="217.11" width="40.26" height="473.48" transform="translate(417.14 -99.37) rotate(45)"/>
    <rect class="cls-2" x="496.66" y="249.09" width="44.23" height="29.8" transform="translate(338.61 -289.5) rotate(45)"/>
  </g>
  <path class="cls-2" d="M585.94,263.6l-17.67-47.76c-.3-.81-.93-1.44-1.74-1.74l-47.76-17.67,47.76-17.67c.81-.3,1.44-.93,1.74-1.74l17.67-47.76,17.67,47.76c.3.81.93,1.44,1.74,1.74l47.76,17.67-47.76,17.67c-.81.3-1.44.93-1.74,1.74l-17.67,47.76Z"/>
  <path class="cls-2" d="M352.16,281.12l-10.41-28.14c-.3-.81-.93-1.44-1.74-1.74l-28.14-10.41,28.14-10.41c.81-.3,1.44-.93,1.74-1.74l10.41-28.14,10.41,28.14c.3.81.93,1.44,1.74,1.74l28.14,10.41-28.14,10.41c-.81.3-1.44.93-1.74,1.74l-10.41,28.14Z"/>
  <path class="cls-2" d="M603.83,378.52l-10.41-28.14c-.3-.81-.93-1.44-1.74-1.74l-28.14-10.41,28.14-10.41c.81-.3,1.44-.93,1.74-1.74l10.41-28.14,10.41,28.14c.3.81.93,1.44,1.74,1.74l28.14,10.41-28.14,10.41c-.81.3-1.44.93-1.74,1.74l-10.41,28.14Z"/>
  <path class="cls-2" d="M498.79,429.6l-6.43-17.37c-.3-.81-.93-1.44-1.74-1.74l-17.37-6.43,17.37-6.43c.81-.3,1.44-.93,1.74-1.74l6.43-17.37,6.43,17.37c.3.81.93,1.44,1.74,1.74l17.37,6.43-17.37,6.43c-.81.3-1.44.93-1.74,1.74l-6.43,17.37Z"/>
  <path class="cls-2" d="M447.7,218.46l-6.43-17.37c-.3-.81-.93-1.44-1.74-1.74l-17.37-6.43,17.37-6.43c.81-.3,1.44-.93,1.74-1.74l6.43-17.37,6.43,17.37c.3.81.93,1.44,1.74,1.74l17.37,6.43-17.37,6.43c-.81.3-1.44.93-1.74,1.74l-6.43,17.37Z"/>
</svg>