<?xml version="1.0" encoding="UTF-8"?>
<svg id="Layer_1" data-name="Layer 1" xmlns="http://www.w3.org/2000/svg" viewBox="0 0 800 800">
  <defs>
    <style>
      .cls-1 {
        fill: #fff;
        stroke: #231f20;
        stroke-miterlimit: 10;
        stroke-width: 8.77px;
      }

      .cls-2 {
        fill: #231f20;
        stroke-width: 0px;
      }
    </style>
  </defs>
  <circle class="cls-1" cx="400" cy="398.6" r="389.92"/>
  <g>
    <rect class="cls-2" x="308.92" y="187.35" width="40.03" height="470.72" transform="translate(395.25 -108.78) rotate(45)"/>
    <rect class="cls-2" x="496.09" y="219.15" width="43.97" height="29.63" transform="translate(317.18 -297.81) rotate(45)"/>
  </g>
  <path class="cls-2" d="M584.86,233.57l-17.57-47.47c-.3-.81-.93-1.44-1.74-1.74l-47.47-17.57,47.47-17.57c.81-.3,1.44-.93,1.74-1.74l17.57-47.47,17.57,47.47c.3.81.93,1.44,1.74,1.74l47.47,17.57-47.47,17.57c-.81.3-1.44.93-1.74,1.74l-17.57,47.47Z"/>
  <path class="cls-2" d="M352.44,250.99l-10.35-27.97c-.3-.81-.93-1.44-1.74-1.74l-27.97-10.35,27.97-10.35c.81-.3,1.44-.93,1.74-1.74l10.35-27.97,10.35,27.97c.3.81.93,1.44,1.74,1.74l27.97,10.35-27.97,10.35c-.81.3-1.44.93-1.74,1.74l-10.35,27.97Z"/>
  <path class="cls-2" d="M602.64,347.82l-10.35-27.97c-.3-.81-.93-1.44-1.74-1.74l-27.97-10.35,27.97-10.35c.81-.3,1.44-.93,1.74-1.74l10.35-27.97,10.35,27.97c.3.81.93,1.44,1.74,1.74l27.97,10.35-27.97,10.35c-.81.3-1.44.93-1.74,1.74l-10.35,27.97Z"/>
  <path class="cls-2" d="M498.21,398.6l-6.39-17.26c-.3-.81-.93-1.44-1.74-1.74l-17.26-6.39,17.26-6.39c.81-.3,1.44-.93,1.74-1.74l6.39-17.26,6.39,17.26c.3.81.93,1.44,1.74,1.74l17.26,6.39-17.26,6.39c-.81.3-1.44.93-1.74,1.74l-6.39,17.26Z"/>
  <path class="cls-2" d="M447.42,188.7l-6.39-17.26c-.3-.81-.93-1.44-1.74-1.74l-17.26-6.39,17.26-6.39c.81-.3,1.44-.93,1.74-1.74l6.39-17.26,6.39,17.26c.3.81.93,1.44,1.74,1.74l17.26,6.39-17.26,6.39c-.81.3-1.44.93-1.74,1.74l-6.39,17.26Z"/>
</svg>