<?xml version="1.0" encoding="UTF-8"?>
<svg id="Layer_1" data-name="Layer 1" xmlns="http://www.w3.org/2000/svg" viewBox="0 0 353.37 353.37">
  <defs>
    <style>
      .cls-1 {
        fill: #000;
        stroke-width: 0px;
      }

      .cls-2 {
        stroke-width: 3.37px;
      }

      .cls-2, .cls-3 {
        fill: #fff;
        stroke: #231f20;
        stroke-miterlimit: 10;
      }

      .cls-3 {
        stroke-width: 3.11px;
      }
    </style>
  </defs>
  <circle class="cls-2" cx="176.69" cy="176.69" r="175"/>
  <g>
    <path class="cls-1" d="M134.14,105.35c21.38-16.23,37.8-18.35,49.68-16.33,25.49,4.33,30.97,27.88,54.64,27.22,6.04-.17,44.71-19.96,44.71-19.96v87.75c-13.43,8.32-24.62,12.32-33.89,13.75-2.06.32-11,1.01-22.41-1.68-21.15-4.99-34.99-18.25-41.4-25.41-3.79-4.29-14.86-15.66-28.15-14.52-19.16,1.65-32.82,28.41-36.47,35.64,0,.02-.01.03-.01.03l13.3-86.49Z"/>
    <path class="cls-3" d="M96.99,285.55c8.52-63.7,17.04-127.39,25.56-191.09h11.59c-.05.4-19.02,139.26-26.09,191.09h-11.06Z"/>
    <ellipse class="cls-2" cx="130" cy="84.18" rx="14.08" ry="14.52"/>
  </g>
</svg>