<?xml version="1.0" encoding="UTF-8"?>
<svg id="Layer_1" data-name="Layer 1" xmlns="http://www.w3.org/2000/svg" viewBox="0 0 365.73 365.73">
  <defs>
    <style>
      .cls-1, .cls-2, .cls-3, .cls-4, .cls-5 {
        stroke-miterlimit: 10;
      }

      .cls-1, .cls-3 {
        stroke: #cd2027;
      }

      .cls-1, .cls-3, .cls-4 {
        fill: none;
      }

      .cls-1, .cls-4 {
        stroke-width: 2.92px;
      }

      .cls-2 {
        stroke-width: 2.35px;
      }

      .cls-2, .cls-4, .cls-5 {
        stroke: #231f20;
      }

      .cls-2, .cls-5 {
        fill: #fff;
      }

      .cls-3 {
        stroke-width: 2.82px;
      }

      .cls-5 {
        stroke-width: 3.19px;
      }

      .cls-6 {
        fill: #231f20;
        stroke-width: 0px;
      }
    </style>
  </defs>
  <circle class="cls-6" cx="182.86" cy="182.86" r="182.86"/>
  <g>
    <path class="cls-5" d="M135.25,262.61c.27,8.48-8.29,15.13-17.46,14.6-8.39-.49-15.43-6.88-15.13-14.6V77.7c2.38-5.81,8.95-9.73,16.3-9.73s13.91,3.92,16.3,9.73v184.91Z"/>
    <polygon class="cls-2" points="263.71 265.53 135.25 265.53 135.25 82.57 263.71 82.57 263.71 137.53 263.71 265.53"/>
    <path class="cls-4" d="M182.56,82.57s-15.61,30.06,6.01,30.6c21.62.54,53.73-13.08,56.65-2.38,2.92,10.71-51.57,14.01-34.06,30.85,17.51,16.84,52.55,8.01,52.55,8.01"/>
    <path class="cls-4" d="M137.2,139.99c5.02-1.35,19.28-4.67,29.82.4,1.95.94,3.75,1.76,4.81,3.73,3.53,6.55-6.64,16.86,5.29,22.3,13.7,6.25,26.21-5.79,40.5.69,2.24,1.02,5.72,3.05,9.12,5.96,0,0,4.58,3.92,7.79,8.76,5.15,7.79,9.42,26.57,0,41.85-12.03,19.51-40.52,23.78-57.41,13.14-2.32-1.46-14.89-9.8-16.37-22.68-.85-7.34,2.43-11.63-.18-15.76-3.54-5.61-14.34-5.23-23.36-3.89"/>
    <path class="cls-4" d="M263.71,227.86s-19.46,8.47-33.09,19.17c-13.62,10.71-33.1.53-45.26,10.49s-17.07,8.01-17.07,8.01"/>
    <line class="cls-1" x1="211.65" y1="156.05" x2="182.91" y2="181.64"/>
    <line class="cls-3" x1="188.94" y1="153.52" x2="208.34" y2="185.84"/>
    <circle class="cls-6" cx="118.1" cy="83.43" r="9.64"/>
    <circle class="cls-6" cx="118.31" cy="263.23" r="9.64"/>
  </g>
</svg>